<mxfile host="app.diagrams.net" modified="2022-03-10T07:13:58.998Z" agent="5.0 (Windows)" etag="BubV_Vcczx1SoQZHrbX6" version="17.1.0" type="github">
  <diagram id="cHOvcO2SzUBjgOlQo1bt" name="Page-1">
    <mxGraphModel dx="2489" dy="928" grid="1" gridSize="10" guides="1" tooltips="1" connect="1" arrows="1" fold="1" page="1" pageScale="1" pageWidth="850" pageHeight="1100" math="0" shadow="0">
      <root>
        <mxCell id="0" />
        <mxCell id="1" parent="0" />
        <mxCell id="bvwN4WITmdQyCTtZIi4v-201" value="" style="endArrow=none;html=1;rounded=0;fontFamily=Lucida Console;fontSize=20;fontColor=#FF8000;entryX=0;entryY=0.5;entryDx=0;entryDy=0;exitX=1.002;exitY=0.6;exitDx=0;exitDy=0;exitPerimeter=0;" edge="1" parent="1">
          <mxGeometry width="50" height="50" relative="1" as="geometry">
            <mxPoint x="511.4000000000001" y="982.67" as="sourcePoint" />
            <mxPoint x="560" y="982.67" as="targetPoint" />
          </mxGeometry>
        </mxCell>
        <mxCell id="bvwN4WITmdQyCTtZIi4v-202" value="" style="endArrow=none;html=1;rounded=0;fontFamily=Lucida Console;fontSize=20;fontColor=#FF8000;entryX=0;entryY=0.5;entryDx=0;entryDy=0;exitX=1;exitY=0.5;exitDx=0;exitDy=0;" edge="1" parent="1">
          <mxGeometry width="50" height="50" relative="1" as="geometry">
            <mxPoint x="519" y="979.4999999999999" as="sourcePoint" />
            <mxPoint x="559" y="979.4999999999999" as="targetPoint" />
          </mxGeometry>
        </mxCell>
        <mxCell id="bvwN4WITmdQyCTtZIi4v-199" value="" style="endArrow=none;html=1;rounded=0;fontFamily=Lucida Console;fontSize=20;fontColor=#FF8000;strokeColor=#000000;entryX=0.5;entryY=1;entryDx=0;entryDy=0;" edge="1" parent="1" target="bvwN4WITmdQyCTtZIi4v-141">
          <mxGeometry width="50" height="50" relative="1" as="geometry">
            <mxPoint x="440" y="940" as="sourcePoint" />
            <mxPoint x="439.66" y="878.5" as="targetPoint" />
          </mxGeometry>
        </mxCell>
        <mxCell id="bvwN4WITmdQyCTtZIi4v-198" value="" style="endArrow=none;html=1;rounded=0;fontFamily=Lucida Console;fontSize=20;fontColor=#FF8000;entryX=0.5;entryY=1;entryDx=0;entryDy=0;exitX=0.5;exitY=0;exitDx=0;exitDy=0;strokeColor=#000000;" edge="1" parent="1" source="bvwN4WITmdQyCTtZIi4v-141">
          <mxGeometry width="50" height="50" relative="1" as="geometry">
            <mxPoint x="439.6599999999999" y="758" as="sourcePoint" />
            <mxPoint x="439.6599999999999" y="698" as="targetPoint" />
          </mxGeometry>
        </mxCell>
        <mxCell id="bvwN4WITmdQyCTtZIi4v-57" value="" style="ellipse;whiteSpace=wrap;html=1;fontFamily=Lucida Console;fontSize=20;strokeColor=#6E67A1;strokeWidth=2;fillColor=#FFFFFF;" vertex="1" parent="1">
          <mxGeometry x="595" y="290" width="100" height="40" as="geometry" />
        </mxCell>
        <mxCell id="bvwN4WITmdQyCTtZIi4v-69" value="" style="ellipse;whiteSpace=wrap;html=1;fontFamily=Lucida Console;fontSize=20;strokeColor=#6E67A1;strokeWidth=2;fillColor=#d0cee2;" vertex="1" parent="1">
          <mxGeometry x="600" y="293" width="90" height="34" as="geometry" />
        </mxCell>
        <mxCell id="bvwN4WITmdQyCTtZIi4v-39" value="" style="endArrow=none;html=1;rounded=0;fontFamily=Lucida Console;fontSize=20;fontColor=#FF8000;entryX=0;entryY=0.5;entryDx=0;entryDy=0;exitX=1.002;exitY=0.6;exitDx=0;exitDy=0;exitPerimeter=0;" edge="1" parent="1">
          <mxGeometry width="50" height="50" relative="1" as="geometry">
            <mxPoint x="320.39999999999986" y="663.36" as="sourcePoint" />
            <mxPoint x="369" y="663.36" as="targetPoint" />
          </mxGeometry>
        </mxCell>
        <mxCell id="bvwN4WITmdQyCTtZIi4v-40" value="" style="endArrow=none;html=1;rounded=0;fontFamily=Lucida Console;fontSize=20;fontColor=#FF8000;entryX=0;entryY=0.5;entryDx=0;entryDy=0;exitX=1;exitY=0.5;exitDx=0;exitDy=0;" edge="1" parent="1">
          <mxGeometry width="50" height="50" relative="1" as="geometry">
            <mxPoint x="320" y="660.36" as="sourcePoint" />
            <mxPoint x="360" y="660.36" as="targetPoint" />
          </mxGeometry>
        </mxCell>
        <mxCell id="bvwN4WITmdQyCTtZIi4v-35" value="" style="endArrow=none;html=1;rounded=0;fontFamily=Lucida Console;fontSize=20;fontColor=#FF8000;entryX=0.5;entryY=1;entryDx=0;entryDy=0;exitX=0.5;exitY=0;exitDx=0;exitDy=0;strokeColor=#000000;" edge="1" parent="1">
          <mxGeometry width="50" height="50" relative="1" as="geometry">
            <mxPoint x="440.93999999999994" y="380" as="sourcePoint" />
            <mxPoint x="440.93999999999994" y="320" as="targetPoint" />
          </mxGeometry>
        </mxCell>
        <mxCell id="bvwN4WITmdQyCTtZIi4v-33" value="" style="endArrow=none;html=1;rounded=0;fontFamily=Lucida Console;fontSize=20;fontColor=#FF8000;entryX=0.5;entryY=1;entryDx=0;entryDy=0;exitX=0.5;exitY=0;exitDx=0;exitDy=0;strokeColor=#000000;" edge="1" parent="1">
          <mxGeometry width="50" height="50" relative="1" as="geometry">
            <mxPoint x="438.58" y="380" as="sourcePoint" />
            <mxPoint x="438.58" y="320" as="targetPoint" />
          </mxGeometry>
        </mxCell>
        <mxCell id="bvwN4WITmdQyCTtZIi4v-31" value="" style="endArrow=none;html=1;rounded=0;fontFamily=Lucida Console;fontSize=20;fontColor=#FF8000;entryX=0;entryY=0.5;entryDx=0;entryDy=0;exitX=1.002;exitY=0.6;exitDx=0;exitDy=0;exitPerimeter=0;" edge="1" parent="1">
          <mxGeometry width="50" height="50" relative="1" as="geometry">
            <mxPoint x="512.3999999999999" y="183" as="sourcePoint" />
            <mxPoint x="561" y="183" as="targetPoint" />
          </mxGeometry>
        </mxCell>
        <mxCell id="bvwN4WITmdQyCTtZIi4v-30" value="" style="endArrow=none;html=1;rounded=0;fontFamily=Lucida Console;fontSize=20;fontColor=#FF8000;entryX=0;entryY=0.5;entryDx=0;entryDy=0;exitX=1.002;exitY=0.6;exitDx=0;exitDy=0;exitPerimeter=0;" edge="1" parent="1">
          <mxGeometry width="50" height="50" relative="1" as="geometry">
            <mxPoint x="320.39999999999986" y="183" as="sourcePoint" />
            <mxPoint x="369" y="183" as="targetPoint" />
          </mxGeometry>
        </mxCell>
        <mxCell id="bvwN4WITmdQyCTtZIi4v-3" value="" style="group;fillColor=#b1ddf0;strokeColor=#10739e;" vertex="1" connectable="0" parent="1">
          <mxGeometry x="120" y="160" width="200" height="40" as="geometry" />
        </mxCell>
        <mxCell id="bvwN4WITmdQyCTtZIi4v-1" value="" style="rounded=0;whiteSpace=wrap;html=1;fillColor=#dae8fc;strokeColor=#6c8ebf;strokeWidth=2;" vertex="1" parent="bvwN4WITmdQyCTtZIi4v-3">
          <mxGeometry width="200" height="40" as="geometry" />
        </mxCell>
        <mxCell id="bvwN4WITmdQyCTtZIi4v-2" value="&lt;font style=&quot;font-size: 20px&quot; face=&quot;Lucida Console&quot; color=&quot;#6C8EBF&quot;&gt;STATION&lt;/font&gt;" style="text;html=1;strokeColor=none;fillColor=none;align=center;verticalAlign=middle;whiteSpace=wrap;rounded=0;" vertex="1" parent="bvwN4WITmdQyCTtZIi4v-3">
          <mxGeometry x="70" y="5" width="60" height="30" as="geometry" />
        </mxCell>
        <mxCell id="bvwN4WITmdQyCTtZIi4v-6" value="" style="group" vertex="1" connectable="0" parent="1">
          <mxGeometry x="560" y="160" width="200" height="40" as="geometry" />
        </mxCell>
        <mxCell id="bvwN4WITmdQyCTtZIi4v-4" value="" style="rounded=0;whiteSpace=wrap;html=1;fillColor=#dae8fc;strokeColor=#6c8ebf;strokeWidth=2;" vertex="1" parent="bvwN4WITmdQyCTtZIi4v-6">
          <mxGeometry width="200" height="40" as="geometry" />
        </mxCell>
        <mxCell id="bvwN4WITmdQyCTtZIi4v-5" value="&lt;font style=&quot;font-size: 20px&quot; face=&quot;Lucida Console&quot; color=&quot;#6C8EBF&quot;&gt;DISTANCE&lt;/font&gt;" style="text;html=1;strokeColor=none;fillColor=none;align=center;verticalAlign=middle;whiteSpace=wrap;rounded=0;" vertex="1" parent="bvwN4WITmdQyCTtZIi4v-6">
          <mxGeometry x="70" y="5" width="60" height="30" as="geometry" />
        </mxCell>
        <mxCell id="bvwN4WITmdQyCTtZIi4v-7" value="" style="group" vertex="1" connectable="0" parent="1">
          <mxGeometry x="340" y="280" width="200" height="40" as="geometry" />
        </mxCell>
        <mxCell id="bvwN4WITmdQyCTtZIi4v-8" value="" style="rounded=0;whiteSpace=wrap;html=1;fillColor=#dae8fc;strokeColor=#6c8ebf;strokeWidth=2;" vertex="1" parent="bvwN4WITmdQyCTtZIi4v-7">
          <mxGeometry width="200" height="40" as="geometry" />
        </mxCell>
        <mxCell id="bvwN4WITmdQyCTtZIi4v-9" value="&lt;font style=&quot;font-size: 20px&quot; face=&quot;Lucida Console&quot; color=&quot;#6C8EBF&quot;&gt;RAILLINE&lt;/font&gt;" style="text;html=1;strokeColor=none;fillColor=none;align=center;verticalAlign=middle;whiteSpace=wrap;rounded=0;" vertex="1" parent="bvwN4WITmdQyCTtZIi4v-7">
          <mxGeometry x="70" y="5" width="60" height="30" as="geometry" />
        </mxCell>
        <mxCell id="bvwN4WITmdQyCTtZIi4v-11" value="" style="group" vertex="1" connectable="0" parent="1">
          <mxGeometry x="340" y="520" width="200" height="40" as="geometry" />
        </mxCell>
        <mxCell id="bvwN4WITmdQyCTtZIi4v-12" value="" style="rounded=0;whiteSpace=wrap;html=1;fillColor=#dae8fc;strokeColor=#6c8ebf;strokeWidth=2;" vertex="1" parent="bvwN4WITmdQyCTtZIi4v-11">
          <mxGeometry width="200" height="40" as="geometry" />
        </mxCell>
        <mxCell id="bvwN4WITmdQyCTtZIi4v-13" value="&lt;font style=&quot;font-size: 20px&quot; face=&quot;Lucida Console&quot; color=&quot;#6C8EBF&quot;&gt;ROUTE&lt;/font&gt;" style="text;html=1;strokeColor=none;fillColor=none;align=center;verticalAlign=middle;whiteSpace=wrap;rounded=0;" vertex="1" parent="bvwN4WITmdQyCTtZIi4v-11">
          <mxGeometry x="70" y="5" width="60" height="30" as="geometry" />
        </mxCell>
        <mxCell id="bvwN4WITmdQyCTtZIi4v-14" value="" style="group" vertex="1" connectable="0" parent="1">
          <mxGeometry x="120" y="640" width="200" height="40" as="geometry" />
        </mxCell>
        <mxCell id="bvwN4WITmdQyCTtZIi4v-15" value="" style="rounded=0;whiteSpace=wrap;html=1;fillColor=#dae8fc;strokeColor=#6c8ebf;strokeWidth=2;" vertex="1" parent="bvwN4WITmdQyCTtZIi4v-14">
          <mxGeometry width="200" height="40" as="geometry" />
        </mxCell>
        <mxCell id="bvwN4WITmdQyCTtZIi4v-16" value="&lt;font style=&quot;font-size: 20px&quot; face=&quot;Lucida Console&quot; color=&quot;#6C8EBF&quot;&gt;SCHEDULE&lt;/font&gt;" style="text;html=1;strokeColor=none;fillColor=none;align=center;verticalAlign=middle;whiteSpace=wrap;rounded=0;" vertex="1" parent="bvwN4WITmdQyCTtZIi4v-14">
          <mxGeometry x="70" y="5" width="60" height="30" as="geometry" />
        </mxCell>
        <mxCell id="bvwN4WITmdQyCTtZIi4v-17" value="" style="group" vertex="1" connectable="0" parent="1">
          <mxGeometry x="560" y="640" width="200" height="40" as="geometry" />
        </mxCell>
        <mxCell id="bvwN4WITmdQyCTtZIi4v-18" value="" style="rounded=0;whiteSpace=wrap;html=1;fillColor=#dae8fc;strokeColor=#6c8ebf;strokeWidth=2;" vertex="1" parent="bvwN4WITmdQyCTtZIi4v-17">
          <mxGeometry width="200" height="40" as="geometry" />
        </mxCell>
        <mxCell id="bvwN4WITmdQyCTtZIi4v-19" value="&lt;font style=&quot;font-size: 20px&quot; face=&quot;Lucida Console&quot; color=&quot;#6C8EBF&quot;&gt;TRAIN&lt;/font&gt;" style="text;html=1;strokeColor=none;fillColor=none;align=center;verticalAlign=middle;whiteSpace=wrap;rounded=0;" vertex="1" parent="bvwN4WITmdQyCTtZIi4v-17">
          <mxGeometry x="70" y="5" width="60" height="30" as="geometry" />
        </mxCell>
        <mxCell id="bvwN4WITmdQyCTtZIi4v-20" value="" style="rhombus;whiteSpace=wrap;html=1;fontFamily=Lucida Console;fontSize=20;strokeWidth=2;fillColor=#fad7ac;strokeColor=#FF8000;" vertex="1" parent="1">
          <mxGeometry x="360" y="140" width="160" height="80" as="geometry" />
        </mxCell>
        <mxCell id="bvwN4WITmdQyCTtZIi4v-22" value="&lt;font color=&quot;#FF8000&quot;&gt;has&lt;/font&gt;" style="text;html=1;strokeColor=none;fillColor=none;align=center;verticalAlign=middle;whiteSpace=wrap;rounded=0;fontFamily=Lucida Console;fontSize=20;fontColor=#6C8EBF;" vertex="1" parent="1">
          <mxGeometry x="410" y="165" width="60" height="30" as="geometry" />
        </mxCell>
        <mxCell id="bvwN4WITmdQyCTtZIi4v-23" value="" style="rhombus;whiteSpace=wrap;html=1;fontFamily=Lucida Console;fontSize=20;strokeWidth=2;fillColor=#fad7ac;strokeColor=#FF8000;" vertex="1" parent="1">
          <mxGeometry x="360" y="380" width="160" height="80" as="geometry" />
        </mxCell>
        <mxCell id="bvwN4WITmdQyCTtZIi4v-24" value="&lt;div&gt;&lt;font color=&quot;#FF8000&quot;&gt;traverses&lt;/font&gt;&lt;/div&gt;" style="text;html=1;strokeColor=none;fillColor=none;align=center;verticalAlign=middle;whiteSpace=wrap;rounded=0;fontFamily=Lucida Console;fontSize=20;fontColor=#6C8EBF;" vertex="1" parent="1">
          <mxGeometry x="410" y="405" width="60" height="30" as="geometry" />
        </mxCell>
        <mxCell id="bvwN4WITmdQyCTtZIi4v-25" value="" style="rhombus;whiteSpace=wrap;html=1;fontFamily=Lucida Console;fontSize=20;strokeWidth=2;fillColor=#fad7ac;strokeColor=#FF8000;" vertex="1" parent="1">
          <mxGeometry x="360" y="620" width="160" height="80" as="geometry" />
        </mxCell>
        <mxCell id="bvwN4WITmdQyCTtZIi4v-26" value="&lt;div&gt;&lt;font color=&quot;#FF8000&quot;&gt;requires&lt;/font&gt;&lt;/div&gt;" style="text;html=1;strokeColor=none;fillColor=none;align=center;verticalAlign=middle;whiteSpace=wrap;rounded=0;fontFamily=Lucida Console;fontSize=20;fontColor=#6C8EBF;" vertex="1" parent="1">
          <mxGeometry x="410" y="645" width="60" height="30" as="geometry" />
        </mxCell>
        <mxCell id="bvwN4WITmdQyCTtZIi4v-27" value="" style="endArrow=none;html=1;rounded=0;fontFamily=Lucida Console;fontSize=20;fontColor=#FF8000;entryX=0;entryY=0.5;entryDx=0;entryDy=0;exitX=1;exitY=0.5;exitDx=0;exitDy=0;" edge="1" parent="1" source="bvwN4WITmdQyCTtZIi4v-1" target="bvwN4WITmdQyCTtZIi4v-20">
          <mxGeometry width="50" height="50" relative="1" as="geometry">
            <mxPoint x="300" y="250" as="sourcePoint" />
            <mxPoint x="350" y="200" as="targetPoint" />
          </mxGeometry>
        </mxCell>
        <mxCell id="bvwN4WITmdQyCTtZIi4v-28" value="" style="endArrow=none;html=1;rounded=0;fontFamily=Lucida Console;fontSize=20;fontColor=#FF8000;entryX=0.5;entryY=1;entryDx=0;entryDy=0;exitX=0.5;exitY=0;exitDx=0;exitDy=0;strokeColor=#000000;" edge="1" parent="1" source="bvwN4WITmdQyCTtZIi4v-8" target="bvwN4WITmdQyCTtZIi4v-20">
          <mxGeometry width="50" height="50" relative="1" as="geometry">
            <mxPoint x="400" y="550" as="sourcePoint" />
            <mxPoint x="450" y="500" as="targetPoint" />
          </mxGeometry>
        </mxCell>
        <mxCell id="bvwN4WITmdQyCTtZIi4v-32" value="" style="endArrow=none;html=1;rounded=0;fontFamily=Lucida Console;fontSize=20;fontColor=#FF8000;entryX=0;entryY=0.5;entryDx=0;entryDy=0;exitX=1;exitY=0.5;exitDx=0;exitDy=0;" edge="1" parent="1">
          <mxGeometry width="50" height="50" relative="1" as="geometry">
            <mxPoint x="520" y="179.83" as="sourcePoint" />
            <mxPoint x="560" y="179.83" as="targetPoint" />
          </mxGeometry>
        </mxCell>
        <mxCell id="bvwN4WITmdQyCTtZIi4v-34" value="" style="endArrow=none;html=1;rounded=0;fontFamily=Lucida Console;fontSize=20;fontColor=#FF8000;entryX=0.5;entryY=1;entryDx=0;entryDy=0;exitX=0.5;exitY=0;exitDx=0;exitDy=0;strokeColor=#000000;" edge="1" parent="1">
          <mxGeometry width="50" height="50" relative="1" as="geometry">
            <mxPoint x="439.5799999999999" y="520" as="sourcePoint" />
            <mxPoint x="439.5799999999999" y="460" as="targetPoint" />
          </mxGeometry>
        </mxCell>
        <mxCell id="bvwN4WITmdQyCTtZIi4v-36" value="" style="endArrow=none;html=1;rounded=0;fontFamily=Lucida Console;fontSize=20;fontColor=#FF8000;entryX=0;entryY=0.5;entryDx=0;entryDy=0;exitX=1;exitY=0.5;exitDx=0;exitDy=0;" edge="1" parent="1">
          <mxGeometry width="50" height="50" relative="1" as="geometry">
            <mxPoint x="520" y="659.71" as="sourcePoint" />
            <mxPoint x="560" y="659.71" as="targetPoint" />
          </mxGeometry>
        </mxCell>
        <mxCell id="bvwN4WITmdQyCTtZIi4v-37" value="" style="endArrow=none;html=1;rounded=0;fontFamily=Lucida Console;fontSize=20;fontColor=#FF8000;entryX=0.5;entryY=1;entryDx=0;entryDy=0;exitX=0.5;exitY=0;exitDx=0;exitDy=0;strokeColor=#000000;" edge="1" parent="1">
          <mxGeometry width="50" height="50" relative="1" as="geometry">
            <mxPoint x="440.89000000000004" y="620" as="sourcePoint" />
            <mxPoint x="440.89000000000004" y="560" as="targetPoint" />
          </mxGeometry>
        </mxCell>
        <mxCell id="bvwN4WITmdQyCTtZIi4v-38" value="" style="endArrow=none;html=1;rounded=0;fontFamily=Lucida Console;fontSize=20;fontColor=#FF8000;entryX=0.5;entryY=1;entryDx=0;entryDy=0;exitX=0.5;exitY=0;exitDx=0;exitDy=0;strokeColor=#000000;" edge="1" parent="1">
          <mxGeometry width="50" height="50" relative="1" as="geometry">
            <mxPoint x="438.5299999999999" y="620" as="sourcePoint" />
            <mxPoint x="438.5299999999999" y="560" as="targetPoint" />
          </mxGeometry>
        </mxCell>
        <mxCell id="bvwN4WITmdQyCTtZIi4v-41" value="" style="ellipse;whiteSpace=wrap;html=1;fontFamily=Lucida Console;fontSize=20;strokeColor=#6E67A1;strokeWidth=2;fillColor=#d0cee2;" vertex="1" parent="1">
          <mxGeometry x="100" y="80" width="100" height="40" as="geometry" />
        </mxCell>
        <mxCell id="bvwN4WITmdQyCTtZIi4v-42" value="&lt;b&gt;&lt;font style=&quot;font-size: 12px&quot; color=&quot;#6E67A1&quot;&gt;station_no&lt;/font&gt;&lt;/b&gt;" style="text;html=1;strokeColor=none;fillColor=none;align=center;verticalAlign=middle;whiteSpace=wrap;rounded=0;fontFamily=Lucida Console;fontSize=20;fontColor=#FF8000;" vertex="1" parent="1">
          <mxGeometry x="120" y="92" width="60" height="12" as="geometry" />
        </mxCell>
        <mxCell id="bvwN4WITmdQyCTtZIi4v-43" value="" style="ellipse;whiteSpace=wrap;html=1;fontFamily=Lucida Console;fontSize=20;strokeColor=#6E67A1;strokeWidth=2;fillColor=#d0cee2;" vertex="1" parent="1">
          <mxGeometry x="240" y="80" width="100" height="40" as="geometry" />
        </mxCell>
        <mxCell id="bvwN4WITmdQyCTtZIi4v-44" value="&lt;font style=&quot;font-size: 12px&quot; color=&quot;#6E67A1&quot;&gt;address&lt;/font&gt;" style="text;html=1;strokeColor=none;fillColor=none;align=center;verticalAlign=middle;whiteSpace=wrap;rounded=0;fontFamily=Lucida Console;fontSize=20;fontColor=#FF8000;" vertex="1" parent="1">
          <mxGeometry x="260" y="92" width="60" height="12" as="geometry" />
        </mxCell>
        <mxCell id="bvwN4WITmdQyCTtZIi4v-45" value="" style="ellipse;whiteSpace=wrap;html=1;fontFamily=Lucida Console;fontSize=20;strokeColor=#6E67A1;strokeWidth=2;fillColor=#d0cee2;" vertex="1" parent="1">
          <mxGeometry x="170" y="40" width="100" height="40" as="geometry" />
        </mxCell>
        <mxCell id="bvwN4WITmdQyCTtZIi4v-46" value="&lt;font style=&quot;font-size: 12px&quot; color=&quot;#6E67A1&quot;&gt;hours&lt;/font&gt;" style="text;html=1;strokeColor=none;fillColor=none;align=center;verticalAlign=middle;whiteSpace=wrap;rounded=0;fontFamily=Lucida Console;fontSize=20;fontColor=#FF8000;" vertex="1" parent="1">
          <mxGeometry x="190" y="52" width="60" height="12" as="geometry" />
        </mxCell>
        <mxCell id="bvwN4WITmdQyCTtZIi4v-47" value="" style="ellipse;whiteSpace=wrap;html=1;fontFamily=Lucida Console;fontSize=20;strokeColor=#6E67A1;strokeWidth=2;fillColor=#d0cee2;" vertex="1" parent="1">
          <mxGeometry x="550" y="80" width="100" height="40" as="geometry" />
        </mxCell>
        <mxCell id="bvwN4WITmdQyCTtZIi4v-48" value="&lt;b&gt;&lt;font style=&quot;font-size: 12px&quot; color=&quot;#6E67A1&quot;&gt;station_AB&lt;/font&gt;&lt;/b&gt;" style="text;html=1;strokeColor=none;fillColor=none;align=center;verticalAlign=middle;whiteSpace=wrap;rounded=0;fontFamily=Lucida Console;fontSize=20;fontColor=#FF8000;" vertex="1" parent="1">
          <mxGeometry x="570" y="92" width="60" height="12" as="geometry" />
        </mxCell>
        <mxCell id="bvwN4WITmdQyCTtZIi4v-49" value="" style="ellipse;whiteSpace=wrap;html=1;fontFamily=Lucida Console;fontSize=20;strokeColor=#6E67A1;strokeWidth=2;fillColor=#d0cee2;" vertex="1" parent="1">
          <mxGeometry x="660" y="80" width="100" height="40" as="geometry" />
        </mxCell>
        <mxCell id="bvwN4WITmdQyCTtZIi4v-50" value="&lt;font style=&quot;font-size: 12px&quot; color=&quot;#6E67A1&quot;&gt;miles&lt;/font&gt;" style="text;html=1;strokeColor=none;fillColor=none;align=center;verticalAlign=middle;whiteSpace=wrap;rounded=0;fontFamily=Lucida Console;fontSize=20;fontColor=#FF8000;" vertex="1" parent="1">
          <mxGeometry x="680" y="92" width="60" height="12" as="geometry" />
        </mxCell>
        <mxCell id="bvwN4WITmdQyCTtZIi4v-51" value="" style="ellipse;whiteSpace=wrap;html=1;fontFamily=Lucida Console;fontSize=20;strokeColor=#6E67A1;strokeWidth=2;fillColor=#d0cee2;" vertex="1" parent="1">
          <mxGeometry x="495" y="24" width="100" height="40" as="geometry" />
        </mxCell>
        <mxCell id="bvwN4WITmdQyCTtZIi4v-52" value="&lt;font style=&quot;font-size: 12px&quot; color=&quot;#6E67A1&quot;&gt;stationA&lt;/font&gt;" style="text;html=1;strokeColor=none;fillColor=none;align=center;verticalAlign=middle;whiteSpace=wrap;rounded=0;fontFamily=Lucida Console;fontSize=20;fontColor=#FF8000;" vertex="1" parent="1">
          <mxGeometry x="515" y="36" width="60" height="12" as="geometry" />
        </mxCell>
        <mxCell id="bvwN4WITmdQyCTtZIi4v-53" value="" style="ellipse;whiteSpace=wrap;html=1;fontFamily=Lucida Console;fontSize=20;strokeColor=#6E67A1;strokeWidth=2;fillColor=#d0cee2;" vertex="1" parent="1">
          <mxGeometry x="605" y="24" width="100" height="40" as="geometry" />
        </mxCell>
        <mxCell id="bvwN4WITmdQyCTtZIi4v-54" value="&lt;font style=&quot;font-size: 12px&quot; color=&quot;#6E67A1&quot;&gt;station_B&lt;/font&gt;" style="text;html=1;strokeColor=none;fillColor=none;align=center;verticalAlign=middle;whiteSpace=wrap;rounded=0;fontFamily=Lucida Console;fontSize=20;fontColor=#FF8000;" vertex="1" parent="1">
          <mxGeometry x="625" y="36" width="60" height="12" as="geometry" />
        </mxCell>
        <mxCell id="bvwN4WITmdQyCTtZIi4v-55" value="" style="ellipse;whiteSpace=wrap;html=1;fontFamily=Lucida Console;fontSize=20;strokeColor=#6E67A1;strokeWidth=2;fillColor=#d0cee2;" vertex="1" parent="1">
          <mxGeometry x="595" y="240" width="100" height="40" as="geometry" />
        </mxCell>
        <mxCell id="bvwN4WITmdQyCTtZIi4v-56" value="&lt;b&gt;&lt;font style=&quot;font-size: 12px&quot; color=&quot;#6E67A1&quot;&gt;rail_ID&lt;/font&gt;&lt;/b&gt;" style="text;html=1;strokeColor=none;fillColor=none;align=center;verticalAlign=middle;whiteSpace=wrap;rounded=0;fontFamily=Lucida Console;fontSize=20;fontColor=#FF8000;" vertex="1" parent="1">
          <mxGeometry x="615" y="252" width="60" height="12" as="geometry" />
        </mxCell>
        <mxCell id="bvwN4WITmdQyCTtZIi4v-58" value="&lt;div&gt;&lt;font style=&quot;font-size: 12px&quot; color=&quot;#6E67A1&quot;&gt;station_dis&lt;/font&gt;&lt;/div&gt;" style="text;html=1;strokeColor=none;fillColor=none;align=center;verticalAlign=middle;whiteSpace=wrap;rounded=0;fontFamily=Lucida Console;fontSize=20;fontColor=#FF8000;" vertex="1" parent="1">
          <mxGeometry x="615" y="302" width="60" height="12" as="geometry" />
        </mxCell>
        <mxCell id="bvwN4WITmdQyCTtZIi4v-61" value="" style="ellipse;whiteSpace=wrap;html=1;fontFamily=Lucida Console;fontSize=20;strokeColor=#6E67A1;strokeWidth=2;fillColor=#d0cee2;" vertex="1" parent="1">
          <mxGeometry x="595" y="340" width="100" height="40" as="geometry" />
        </mxCell>
        <mxCell id="bvwN4WITmdQyCTtZIi4v-62" value="&lt;font style=&quot;font-size: 12px&quot; color=&quot;#6E67A1&quot;&gt;speed&lt;/font&gt;" style="text;html=1;strokeColor=none;fillColor=none;align=center;verticalAlign=middle;whiteSpace=wrap;rounded=0;fontFamily=Lucida Console;fontSize=20;fontColor=#FF8000;" vertex="1" parent="1">
          <mxGeometry x="615" y="352" width="60" height="12" as="geometry" />
        </mxCell>
        <mxCell id="bvwN4WITmdQyCTtZIi4v-63" value="" style="ellipse;whiteSpace=wrap;html=1;fontFamily=Lucida Console;fontSize=20;strokeColor=#6E67A1;strokeWidth=2;fillColor=#d0cee2;" vertex="1" parent="1">
          <mxGeometry x="720" y="240" width="100" height="40" as="geometry" />
        </mxCell>
        <mxCell id="bvwN4WITmdQyCTtZIi4v-64" value="&lt;font style=&quot;font-size: 12px&quot; color=&quot;#6E67A1&quot;&gt;station_A&lt;/font&gt;" style="text;html=1;strokeColor=none;fillColor=none;align=center;verticalAlign=middle;whiteSpace=wrap;rounded=0;fontFamily=Lucida Console;fontSize=20;fontColor=#FF8000;" vertex="1" parent="1">
          <mxGeometry x="740" y="252" width="60" height="12" as="geometry" />
        </mxCell>
        <mxCell id="bvwN4WITmdQyCTtZIi4v-65" value="" style="ellipse;whiteSpace=wrap;html=1;fontFamily=Lucida Console;fontSize=20;strokeColor=#6E67A1;strokeWidth=2;fillColor=#d0cee2;" vertex="1" parent="1">
          <mxGeometry x="720" y="290" width="100" height="40" as="geometry" />
        </mxCell>
        <mxCell id="bvwN4WITmdQyCTtZIi4v-66" value="&lt;font style=&quot;font-size: 12px&quot; color=&quot;#6E67A1&quot;&gt;station_B&lt;/font&gt;" style="text;html=1;strokeColor=none;fillColor=none;align=center;verticalAlign=middle;whiteSpace=wrap;rounded=0;fontFamily=Lucida Console;fontSize=20;fontColor=#FF8000;" vertex="1" parent="1">
          <mxGeometry x="740" y="302" width="60" height="12" as="geometry" />
        </mxCell>
        <mxCell id="bvwN4WITmdQyCTtZIi4v-67" value="" style="ellipse;whiteSpace=wrap;html=1;fontFamily=Lucida Console;fontSize=20;strokeColor=#6E67A1;strokeWidth=2;fillColor=#d0cee2;" vertex="1" parent="1">
          <mxGeometry x="720" y="340" width="100" height="40" as="geometry" />
        </mxCell>
        <mxCell id="bvwN4WITmdQyCTtZIi4v-68" value="&lt;font style=&quot;font-size: 12px&quot; color=&quot;#6E67A1&quot;&gt;distance&lt;/font&gt;" style="text;html=1;strokeColor=none;fillColor=none;align=center;verticalAlign=middle;whiteSpace=wrap;rounded=0;fontFamily=Lucida Console;fontSize=20;fontColor=#FF8000;" vertex="1" parent="1">
          <mxGeometry x="740" y="352" width="60" height="12" as="geometry" />
        </mxCell>
        <mxCell id="bvwN4WITmdQyCTtZIi4v-71" value="" style="ellipse;whiteSpace=wrap;html=1;fontFamily=Lucida Console;fontSize=20;strokeColor=#6E67A1;strokeWidth=2;fillColor=#FFFFFF;" vertex="1" parent="1">
          <mxGeometry x="595" y="520" width="100" height="40" as="geometry" />
        </mxCell>
        <mxCell id="bvwN4WITmdQyCTtZIi4v-72" value="" style="ellipse;whiteSpace=wrap;html=1;fontFamily=Lucida Console;fontSize=20;strokeColor=#6E67A1;strokeWidth=2;fillColor=#d0cee2;" vertex="1" parent="1">
          <mxGeometry x="600" y="523" width="90" height="34" as="geometry" />
        </mxCell>
        <mxCell id="bvwN4WITmdQyCTtZIi4v-73" value="&lt;div&gt;&lt;font style=&quot;font-size: 12px&quot; color=&quot;#6E67A1&quot;&gt;station_open&lt;/font&gt;&lt;/div&gt;" style="text;html=1;strokeColor=none;fillColor=none;align=center;verticalAlign=middle;whiteSpace=wrap;rounded=0;fontFamily=Lucida Console;fontSize=20;fontColor=#FF8000;" vertex="1" parent="1">
          <mxGeometry x="615" y="532" width="60" height="12" as="geometry" />
        </mxCell>
        <mxCell id="bvwN4WITmdQyCTtZIi4v-74" value="" style="ellipse;whiteSpace=wrap;html=1;fontFamily=Lucida Console;fontSize=20;strokeColor=#6E67A1;strokeWidth=2;fillColor=#d0cee2;" vertex="1" parent="1">
          <mxGeometry x="720" y="493" width="100" height="40" as="geometry" />
        </mxCell>
        <mxCell id="bvwN4WITmdQyCTtZIi4v-75" value="&lt;font style=&quot;font-size: 12px&quot; color=&quot;#6E67A1&quot;&gt;station&lt;/font&gt;" style="text;html=1;strokeColor=none;fillColor=none;align=center;verticalAlign=middle;whiteSpace=wrap;rounded=0;fontFamily=Lucida Console;fontSize=20;fontColor=#FF8000;" vertex="1" parent="1">
          <mxGeometry x="740" y="505" width="60" height="12" as="geometry" />
        </mxCell>
        <mxCell id="bvwN4WITmdQyCTtZIi4v-76" value="" style="ellipse;whiteSpace=wrap;html=1;fontFamily=Lucida Console;fontSize=20;strokeColor=#6E67A1;strokeWidth=2;fillColor=#d0cee2;" vertex="1" parent="1">
          <mxGeometry x="720" y="543" width="100" height="40" as="geometry" />
        </mxCell>
        <mxCell id="bvwN4WITmdQyCTtZIi4v-77" value="&lt;font style=&quot;font-size: 12px&quot; color=&quot;#6E67A1&quot;&gt;open&lt;/font&gt;" style="text;html=1;strokeColor=none;fillColor=none;align=center;verticalAlign=middle;whiteSpace=wrap;rounded=0;fontFamily=Lucida Console;fontSize=20;fontColor=#FF8000;" vertex="1" parent="1">
          <mxGeometry x="740" y="555" width="60" height="12" as="geometry" />
        </mxCell>
        <mxCell id="bvwN4WITmdQyCTtZIi4v-78" value="" style="ellipse;whiteSpace=wrap;html=1;fontFamily=Lucida Console;fontSize=20;strokeColor=#6E67A1;strokeWidth=2;fillColor=#d0cee2;" vertex="1" parent="1">
          <mxGeometry x="170" y="700" width="100" height="40" as="geometry" />
        </mxCell>
        <mxCell id="bvwN4WITmdQyCTtZIi4v-79" value="&lt;b&gt;&lt;font style=&quot;font-size: 12px&quot; color=&quot;#6E67A1&quot;&gt;RDT&lt;/font&gt;&lt;/b&gt;" style="text;html=1;strokeColor=none;fillColor=none;align=center;verticalAlign=middle;whiteSpace=wrap;rounded=0;fontFamily=Lucida Console;fontSize=20;fontColor=#FF8000;" vertex="1" parent="1">
          <mxGeometry x="190" y="712" width="60" height="12" as="geometry" />
        </mxCell>
        <mxCell id="bvwN4WITmdQyCTtZIi4v-80" value="" style="ellipse;whiteSpace=wrap;html=1;fontFamily=Lucida Console;fontSize=20;strokeColor=#6E67A1;strokeWidth=2;fillColor=#d0cee2;" vertex="1" parent="1">
          <mxGeometry x="90" y="760" width="100" height="40" as="geometry" />
        </mxCell>
        <mxCell id="bvwN4WITmdQyCTtZIi4v-81" value="&lt;font style=&quot;font-size: 12px&quot; color=&quot;#6E67A1&quot;&gt;route&lt;/font&gt;" style="text;html=1;strokeColor=none;fillColor=none;align=center;verticalAlign=middle;whiteSpace=wrap;rounded=0;fontFamily=Lucida Console;fontSize=20;fontColor=#FF8000;" vertex="1" parent="1">
          <mxGeometry x="110" y="772" width="60" height="12" as="geometry" />
        </mxCell>
        <mxCell id="bvwN4WITmdQyCTtZIi4v-82" value="" style="ellipse;whiteSpace=wrap;html=1;fontFamily=Lucida Console;fontSize=20;strokeColor=#6E67A1;strokeWidth=2;fillColor=#d0cee2;" vertex="1" parent="1">
          <mxGeometry x="170" y="800" width="100" height="40" as="geometry" />
        </mxCell>
        <mxCell id="bvwN4WITmdQyCTtZIi4v-83" value="&lt;font style=&quot;font-size: 12px&quot; color=&quot;#6E67A1&quot;&gt;day&lt;/font&gt;" style="text;html=1;strokeColor=none;fillColor=none;align=center;verticalAlign=middle;whiteSpace=wrap;rounded=0;fontFamily=Lucida Console;fontSize=20;fontColor=#FF8000;" vertex="1" parent="1">
          <mxGeometry x="190" y="812" width="60" height="12" as="geometry" />
        </mxCell>
        <mxCell id="bvwN4WITmdQyCTtZIi4v-84" value="" style="ellipse;whiteSpace=wrap;html=1;fontFamily=Lucida Console;fontSize=20;strokeColor=#6E67A1;strokeWidth=2;fillColor=#d0cee2;" vertex="1" parent="1">
          <mxGeometry x="250" y="760" width="100" height="40" as="geometry" />
        </mxCell>
        <mxCell id="bvwN4WITmdQyCTtZIi4v-85" value="&lt;font style=&quot;font-size: 12px&quot; color=&quot;#6E67A1&quot;&gt;time&lt;/font&gt;" style="text;html=1;strokeColor=none;fillColor=none;align=center;verticalAlign=middle;whiteSpace=wrap;rounded=0;fontFamily=Lucida Console;fontSize=20;fontColor=#FF8000;" vertex="1" parent="1">
          <mxGeometry x="270" y="772" width="60" height="12" as="geometry" />
        </mxCell>
        <mxCell id="bvwN4WITmdQyCTtZIi4v-86" value="" style="ellipse;whiteSpace=wrap;html=1;fontFamily=Lucida Console;fontSize=20;strokeColor=#6E67A1;strokeWidth=2;fillColor=#d0cee2;" vertex="1" parent="1">
          <mxGeometry x="520" y="698" width="100" height="40" as="geometry" />
        </mxCell>
        <mxCell id="bvwN4WITmdQyCTtZIi4v-87" value="&lt;b&gt;&lt;font style=&quot;font-size: 12px&quot; color=&quot;#6E67A1&quot;&gt;train_ID&lt;/font&gt;&lt;/b&gt;" style="text;html=1;strokeColor=none;fillColor=none;align=center;verticalAlign=middle;whiteSpace=wrap;rounded=0;fontFamily=Lucida Console;fontSize=20;fontColor=#FF8000;" vertex="1" parent="1">
          <mxGeometry x="540" y="710" width="60" height="12" as="geometry" />
        </mxCell>
        <mxCell id="bvwN4WITmdQyCTtZIi4v-88" value="" style="ellipse;whiteSpace=wrap;html=1;fontFamily=Lucida Console;fontSize=20;strokeColor=#6E67A1;strokeWidth=2;fillColor=#d0cee2;" vertex="1" parent="1">
          <mxGeometry x="555" y="750" width="100" height="40" as="geometry" />
        </mxCell>
        <mxCell id="bvwN4WITmdQyCTtZIi4v-89" value="&lt;font style=&quot;font-size: 12px&quot; color=&quot;#6E67A1&quot;&gt;seats&lt;/font&gt;" style="text;html=1;strokeColor=none;fillColor=none;align=center;verticalAlign=middle;whiteSpace=wrap;rounded=0;fontFamily=Lucida Console;fontSize=20;fontColor=#FF8000;" vertex="1" parent="1">
          <mxGeometry x="575" y="762" width="60" height="12" as="geometry" />
        </mxCell>
        <mxCell id="bvwN4WITmdQyCTtZIi4v-90" value="" style="ellipse;whiteSpace=wrap;html=1;fontFamily=Lucida Console;fontSize=20;strokeColor=#6E67A1;strokeWidth=2;fillColor=#d0cee2;" vertex="1" parent="1">
          <mxGeometry x="700" y="696" width="100" height="40" as="geometry" />
        </mxCell>
        <mxCell id="bvwN4WITmdQyCTtZIi4v-91" value="&lt;font style=&quot;font-size: 12px&quot; color=&quot;#6E67A1&quot;&gt;top_speed&lt;/font&gt;" style="text;html=1;strokeColor=none;fillColor=none;align=center;verticalAlign=middle;whiteSpace=wrap;rounded=0;fontFamily=Lucida Console;fontSize=20;fontColor=#FF8000;" vertex="1" parent="1">
          <mxGeometry x="720" y="708" width="60" height="12" as="geometry" />
        </mxCell>
        <mxCell id="bvwN4WITmdQyCTtZIi4v-92" value="" style="ellipse;whiteSpace=wrap;html=1;fontFamily=Lucida Console;fontSize=20;strokeColor=#6E67A1;strokeWidth=2;fillColor=#d0cee2;" vertex="1" parent="1">
          <mxGeometry x="665" y="750" width="100" height="40" as="geometry" />
        </mxCell>
        <mxCell id="bvwN4WITmdQyCTtZIi4v-93" value="&lt;font style=&quot;font-size: 12px&quot; color=&quot;#6E67A1&quot;&gt;price_mi&lt;/font&gt;" style="text;html=1;strokeColor=none;fillColor=none;align=center;verticalAlign=middle;whiteSpace=wrap;rounded=0;fontFamily=Lucida Console;fontSize=20;fontColor=#FF8000;" vertex="1" parent="1">
          <mxGeometry x="685" y="762" width="60" height="12" as="geometry" />
        </mxCell>
        <mxCell id="bvwN4WITmdQyCTtZIi4v-94" value="" style="ellipse;whiteSpace=wrap;html=1;fontFamily=Lucida Console;fontSize=20;strokeColor=#6E67A1;strokeWidth=2;fillColor=#d0cee2;" vertex="1" parent="1">
          <mxGeometry x="595" y="470" width="100" height="40" as="geometry" />
        </mxCell>
        <mxCell id="bvwN4WITmdQyCTtZIi4v-95" value="&lt;b&gt;&lt;font style=&quot;font-size: 12px&quot; color=&quot;#6E67A1&quot;&gt;route_ID&lt;/font&gt;&lt;/b&gt;" style="text;html=1;strokeColor=none;fillColor=none;align=center;verticalAlign=middle;whiteSpace=wrap;rounded=0;fontFamily=Lucida Console;fontSize=20;fontColor=#FF8000;" vertex="1" parent="1">
          <mxGeometry x="615" y="482" width="60" height="12" as="geometry" />
        </mxCell>
        <mxCell id="bvwN4WITmdQyCTtZIi4v-96" value="" style="endArrow=none;html=1;rounded=0;fontFamily=Lucida Console;fontSize=12;fontColor=#6E67A1;strokeColor=#6E67A1;entryX=0.5;entryY=1;entryDx=0;entryDy=0;exitX=0.5;exitY=0;exitDx=0;exitDy=0;strokeWidth=2;" edge="1" parent="1" source="bvwN4WITmdQyCTtZIi4v-1" target="bvwN4WITmdQyCTtZIi4v-41">
          <mxGeometry width="50" height="50" relative="1" as="geometry">
            <mxPoint x="330" y="500" as="sourcePoint" />
            <mxPoint x="380" y="450" as="targetPoint" />
          </mxGeometry>
        </mxCell>
        <mxCell id="bvwN4WITmdQyCTtZIi4v-97" value="" style="endArrow=none;html=1;rounded=0;fontFamily=Lucida Console;fontSize=12;fontColor=#6E67A1;strokeColor=#6E67A1;entryX=0.5;entryY=1;entryDx=0;entryDy=0;exitX=0.5;exitY=0;exitDx=0;exitDy=0;strokeWidth=2;" edge="1" parent="1" source="bvwN4WITmdQyCTtZIi4v-1" target="bvwN4WITmdQyCTtZIi4v-45">
          <mxGeometry width="50" height="50" relative="1" as="geometry">
            <mxPoint x="229.99999999999977" y="170" as="sourcePoint" />
            <mxPoint x="159.99999999999977" y="130" as="targetPoint" />
          </mxGeometry>
        </mxCell>
        <mxCell id="bvwN4WITmdQyCTtZIi4v-98" value="" style="endArrow=none;html=1;rounded=0;fontFamily=Lucida Console;fontSize=12;fontColor=#6E67A1;strokeColor=#6E67A1;entryX=0.5;entryY=1;entryDx=0;entryDy=0;strokeWidth=2;" edge="1" parent="1" target="bvwN4WITmdQyCTtZIi4v-43">
          <mxGeometry width="50" height="50" relative="1" as="geometry">
            <mxPoint x="220" y="160" as="sourcePoint" />
            <mxPoint x="169.99999999999977" y="140" as="targetPoint" />
          </mxGeometry>
        </mxCell>
        <mxCell id="bvwN4WITmdQyCTtZIi4v-99" value="" style="endArrow=none;html=1;rounded=0;fontFamily=Lucida Console;fontSize=12;fontColor=#6E67A1;strokeColor=#6E67A1;entryX=0.5;entryY=1;entryDx=0;entryDy=0;exitX=0.5;exitY=0;exitDx=0;exitDy=0;strokeWidth=2;" edge="1" parent="1" source="bvwN4WITmdQyCTtZIi4v-4" target="bvwN4WITmdQyCTtZIi4v-47">
          <mxGeometry width="50" height="50" relative="1" as="geometry">
            <mxPoint x="664.9999999999998" y="160" as="sourcePoint" />
            <mxPoint x="594.9999999999998" y="120" as="targetPoint" />
          </mxGeometry>
        </mxCell>
        <mxCell id="bvwN4WITmdQyCTtZIi4v-100" value="" style="endArrow=none;html=1;rounded=0;fontFamily=Lucida Console;fontSize=12;fontColor=#6E67A1;strokeColor=#6E67A1;entryX=0.5;entryY=1;entryDx=0;entryDy=0;exitX=0.5;exitY=0;exitDx=0;exitDy=0;strokeWidth=2;" edge="1" parent="1" source="bvwN4WITmdQyCTtZIi4v-4" target="bvwN4WITmdQyCTtZIi4v-49">
          <mxGeometry width="50" height="50" relative="1" as="geometry">
            <mxPoint x="259.9999999999998" y="200" as="sourcePoint" />
            <mxPoint x="189.99999999999977" y="160" as="targetPoint" />
          </mxGeometry>
        </mxCell>
        <mxCell id="bvwN4WITmdQyCTtZIi4v-101" value="" style="endArrow=none;html=1;rounded=0;fontFamily=Lucida Console;fontSize=12;fontColor=#6E67A1;strokeColor=#6E67A1;exitX=0.5;exitY=0;exitDx=0;exitDy=0;strokeWidth=2;entryX=0.5;entryY=1;entryDx=0;entryDy=0;" edge="1" parent="1" source="bvwN4WITmdQyCTtZIi4v-47" target="bvwN4WITmdQyCTtZIi4v-51">
          <mxGeometry width="50" height="50" relative="1" as="geometry">
            <mxPoint x="609.9999999999998" y="112" as="sourcePoint" />
            <mxPoint x="550" y="70" as="targetPoint" />
          </mxGeometry>
        </mxCell>
        <mxCell id="bvwN4WITmdQyCTtZIi4v-102" value="" style="endArrow=none;html=1;rounded=0;fontFamily=Lucida Console;fontSize=12;fontColor=#6E67A1;strokeColor=#6E67A1;entryX=0.5;entryY=1;entryDx=0;entryDy=0;exitX=0.5;exitY=0;exitDx=0;exitDy=0;strokeWidth=2;" edge="1" parent="1" source="bvwN4WITmdQyCTtZIi4v-47" target="bvwN4WITmdQyCTtZIi4v-53">
          <mxGeometry width="50" height="50" relative="1" as="geometry">
            <mxPoint x="279.9999999999998" y="220" as="sourcePoint" />
            <mxPoint x="209.99999999999977" y="180" as="targetPoint" />
          </mxGeometry>
        </mxCell>
        <mxCell id="bvwN4WITmdQyCTtZIi4v-103" value="" style="endArrow=none;html=1;rounded=0;fontFamily=Lucida Console;fontSize=12;fontColor=#6E67A1;strokeColor=#6E67A1;entryX=0;entryY=0.5;entryDx=0;entryDy=0;exitX=1;exitY=0.5;exitDx=0;exitDy=0;strokeWidth=2;" edge="1" parent="1" source="bvwN4WITmdQyCTtZIi4v-8" target="bvwN4WITmdQyCTtZIi4v-55">
          <mxGeometry width="50" height="50" relative="1" as="geometry">
            <mxPoint x="289.9999999999998" y="230" as="sourcePoint" />
            <mxPoint x="219.99999999999977" y="190" as="targetPoint" />
          </mxGeometry>
        </mxCell>
        <mxCell id="bvwN4WITmdQyCTtZIi4v-104" value="" style="endArrow=none;html=1;rounded=0;fontFamily=Lucida Console;fontSize=12;fontColor=#6E67A1;strokeColor=#6E67A1;entryX=0;entryY=0.5;entryDx=0;entryDy=0;exitX=1;exitY=0.5;exitDx=0;exitDy=0;strokeWidth=2;" edge="1" parent="1" source="bvwN4WITmdQyCTtZIi4v-8" target="bvwN4WITmdQyCTtZIi4v-57">
          <mxGeometry width="50" height="50" relative="1" as="geometry">
            <mxPoint x="299.9999999999998" y="240" as="sourcePoint" />
            <mxPoint x="229.99999999999977" y="200" as="targetPoint" />
          </mxGeometry>
        </mxCell>
        <mxCell id="bvwN4WITmdQyCTtZIi4v-105" value="" style="endArrow=none;html=1;rounded=0;fontFamily=Lucida Console;fontSize=12;fontColor=#6E67A1;strokeColor=#6E67A1;entryX=0;entryY=0.5;entryDx=0;entryDy=0;exitX=1;exitY=0.5;exitDx=0;exitDy=0;strokeWidth=2;" edge="1" parent="1" source="bvwN4WITmdQyCTtZIi4v-8" target="bvwN4WITmdQyCTtZIi4v-61">
          <mxGeometry width="50" height="50" relative="1" as="geometry">
            <mxPoint x="309.9999999999998" y="250" as="sourcePoint" />
            <mxPoint x="239.99999999999977" y="210" as="targetPoint" />
          </mxGeometry>
        </mxCell>
        <mxCell id="bvwN4WITmdQyCTtZIi4v-106" value="" style="endArrow=none;html=1;rounded=0;fontFamily=Lucida Console;fontSize=12;fontColor=#6E67A1;strokeColor=#6E67A1;entryX=0;entryY=0.5;entryDx=0;entryDy=0;exitX=1;exitY=0.5;exitDx=0;exitDy=0;strokeWidth=2;" edge="1" parent="1" source="bvwN4WITmdQyCTtZIi4v-57" target="bvwN4WITmdQyCTtZIi4v-63">
          <mxGeometry width="50" height="50" relative="1" as="geometry">
            <mxPoint x="319.9999999999998" y="260" as="sourcePoint" />
            <mxPoint x="249.99999999999977" y="220" as="targetPoint" />
          </mxGeometry>
        </mxCell>
        <mxCell id="bvwN4WITmdQyCTtZIi4v-107" value="" style="endArrow=none;html=1;rounded=0;fontFamily=Lucida Console;fontSize=12;fontColor=#6E67A1;strokeColor=#6E67A1;entryX=0;entryY=0.5;entryDx=0;entryDy=0;exitX=1;exitY=0.5;exitDx=0;exitDy=0;strokeWidth=2;" edge="1" parent="1" source="bvwN4WITmdQyCTtZIi4v-57" target="bvwN4WITmdQyCTtZIi4v-65">
          <mxGeometry width="50" height="50" relative="1" as="geometry">
            <mxPoint x="329.9999999999998" y="270" as="sourcePoint" />
            <mxPoint x="259.9999999999998" y="230" as="targetPoint" />
          </mxGeometry>
        </mxCell>
        <mxCell id="bvwN4WITmdQyCTtZIi4v-108" value="" style="endArrow=none;html=1;rounded=0;fontFamily=Lucida Console;fontSize=12;fontColor=#6E67A1;strokeColor=#6E67A1;entryX=0;entryY=0.5;entryDx=0;entryDy=0;exitX=1;exitY=0.5;exitDx=0;exitDy=0;strokeWidth=2;" edge="1" parent="1" source="bvwN4WITmdQyCTtZIi4v-57" target="bvwN4WITmdQyCTtZIi4v-67">
          <mxGeometry width="50" height="50" relative="1" as="geometry">
            <mxPoint x="339.9999999999998" y="280" as="sourcePoint" />
            <mxPoint x="269.9999999999998" y="240" as="targetPoint" />
          </mxGeometry>
        </mxCell>
        <mxCell id="bvwN4WITmdQyCTtZIi4v-109" value="" style="endArrow=none;html=1;rounded=0;fontFamily=Lucida Console;fontSize=12;fontColor=#6E67A1;strokeColor=#6E67A1;entryX=1;entryY=0.5;entryDx=0;entryDy=0;exitX=0;exitY=0.5;exitDx=0;exitDy=0;strokeWidth=2;" edge="1" parent="1" source="bvwN4WITmdQyCTtZIi4v-94" target="bvwN4WITmdQyCTtZIi4v-12">
          <mxGeometry width="50" height="50" relative="1" as="geometry">
            <mxPoint x="349.9999999999998" y="290" as="sourcePoint" />
            <mxPoint x="279.9999999999998" y="250" as="targetPoint" />
          </mxGeometry>
        </mxCell>
        <mxCell id="bvwN4WITmdQyCTtZIi4v-110" value="" style="endArrow=none;html=1;rounded=0;fontFamily=Lucida Console;fontSize=12;fontColor=#6E67A1;strokeColor=#6E67A1;entryX=0;entryY=0.5;entryDx=0;entryDy=0;exitX=1;exitY=0.5;exitDx=0;exitDy=0;strokeWidth=2;" edge="1" parent="1" source="bvwN4WITmdQyCTtZIi4v-12" target="bvwN4WITmdQyCTtZIi4v-71">
          <mxGeometry width="50" height="50" relative="1" as="geometry">
            <mxPoint x="359.9999999999998" y="300" as="sourcePoint" />
            <mxPoint x="289.9999999999998" y="260" as="targetPoint" />
          </mxGeometry>
        </mxCell>
        <mxCell id="bvwN4WITmdQyCTtZIi4v-111" value="" style="endArrow=none;html=1;rounded=0;fontFamily=Lucida Console;fontSize=12;fontColor=#6E67A1;strokeColor=#6E67A1;entryX=1;entryY=0.5;entryDx=0;entryDy=0;exitX=0;exitY=0.5;exitDx=0;exitDy=0;strokeWidth=2;" edge="1" parent="1" source="bvwN4WITmdQyCTtZIi4v-74" target="bvwN4WITmdQyCTtZIi4v-71">
          <mxGeometry width="50" height="50" relative="1" as="geometry">
            <mxPoint x="369.9999999999998" y="310" as="sourcePoint" />
            <mxPoint x="299.9999999999998" y="270" as="targetPoint" />
          </mxGeometry>
        </mxCell>
        <mxCell id="bvwN4WITmdQyCTtZIi4v-112" value="" style="endArrow=none;html=1;rounded=0;fontFamily=Lucida Console;fontSize=12;fontColor=#6E67A1;strokeColor=#6E67A1;exitX=0;exitY=0.5;exitDx=0;exitDy=0;strokeWidth=2;entryX=1;entryY=0.5;entryDx=0;entryDy=0;" edge="1" parent="1" source="bvwN4WITmdQyCTtZIi4v-76" target="bvwN4WITmdQyCTtZIi4v-71">
          <mxGeometry width="50" height="50" relative="1" as="geometry">
            <mxPoint x="379.9999999999998" y="320" as="sourcePoint" />
            <mxPoint x="700" y="510" as="targetPoint" />
          </mxGeometry>
        </mxCell>
        <mxCell id="bvwN4WITmdQyCTtZIi4v-113" value="" style="endArrow=none;html=1;rounded=0;fontFamily=Lucida Console;fontSize=12;fontColor=#6E67A1;strokeColor=#6E67A1;entryX=0.5;entryY=1;entryDx=0;entryDy=0;exitX=0.5;exitY=0;exitDx=0;exitDy=0;strokeWidth=2;" edge="1" parent="1" source="bvwN4WITmdQyCTtZIi4v-78" target="bvwN4WITmdQyCTtZIi4v-15">
          <mxGeometry width="50" height="50" relative="1" as="geometry">
            <mxPoint x="389.9999999999998" y="330" as="sourcePoint" />
            <mxPoint x="319.9999999999998" y="290" as="targetPoint" />
          </mxGeometry>
        </mxCell>
        <mxCell id="bvwN4WITmdQyCTtZIi4v-114" value="" style="endArrow=none;html=1;rounded=0;fontFamily=Lucida Console;fontSize=12;fontColor=#6E67A1;strokeColor=#6E67A1;entryX=0.5;entryY=1;entryDx=0;entryDy=0;exitX=0.5;exitY=0;exitDx=0;exitDy=0;strokeWidth=2;" edge="1" parent="1" source="bvwN4WITmdQyCTtZIi4v-80" target="bvwN4WITmdQyCTtZIi4v-78">
          <mxGeometry width="50" height="50" relative="1" as="geometry">
            <mxPoint x="399.9999999999998" y="340" as="sourcePoint" />
            <mxPoint x="329.9999999999998" y="300" as="targetPoint" />
          </mxGeometry>
        </mxCell>
        <mxCell id="bvwN4WITmdQyCTtZIi4v-115" value="" style="endArrow=none;html=1;rounded=0;fontFamily=Lucida Console;fontSize=12;fontColor=#6E67A1;strokeColor=#6E67A1;entryX=0.5;entryY=1;entryDx=0;entryDy=0;exitX=0.5;exitY=0;exitDx=0;exitDy=0;strokeWidth=2;" edge="1" parent="1" source="bvwN4WITmdQyCTtZIi4v-82" target="bvwN4WITmdQyCTtZIi4v-78">
          <mxGeometry width="50" height="50" relative="1" as="geometry">
            <mxPoint x="409.9999999999998" y="350" as="sourcePoint" />
            <mxPoint x="339.9999999999998" y="310" as="targetPoint" />
          </mxGeometry>
        </mxCell>
        <mxCell id="bvwN4WITmdQyCTtZIi4v-116" value="" style="endArrow=none;html=1;rounded=0;fontFamily=Lucida Console;fontSize=12;fontColor=#6E67A1;strokeColor=#6E67A1;entryX=0.5;entryY=1;entryDx=0;entryDy=0;exitX=0.5;exitY=0;exitDx=0;exitDy=0;strokeWidth=2;" edge="1" parent="1" source="bvwN4WITmdQyCTtZIi4v-84" target="bvwN4WITmdQyCTtZIi4v-78">
          <mxGeometry width="50" height="50" relative="1" as="geometry">
            <mxPoint x="419.9999999999998" y="360" as="sourcePoint" />
            <mxPoint x="349.9999999999998" y="320" as="targetPoint" />
          </mxGeometry>
        </mxCell>
        <mxCell id="bvwN4WITmdQyCTtZIi4v-117" value="" style="endArrow=none;html=1;rounded=0;fontFamily=Lucida Console;fontSize=12;fontColor=#6E67A1;strokeColor=#6E67A1;entryX=0.5;entryY=0;entryDx=0;entryDy=0;exitX=0.5;exitY=1;exitDx=0;exitDy=0;strokeWidth=2;" edge="1" parent="1" source="bvwN4WITmdQyCTtZIi4v-18" target="bvwN4WITmdQyCTtZIi4v-86">
          <mxGeometry width="50" height="50" relative="1" as="geometry">
            <mxPoint x="429.9999999999998" y="370" as="sourcePoint" />
            <mxPoint x="359.9999999999998" y="330" as="targetPoint" />
          </mxGeometry>
        </mxCell>
        <mxCell id="bvwN4WITmdQyCTtZIi4v-118" value="" style="endArrow=none;html=1;rounded=0;fontFamily=Lucida Console;fontSize=12;fontColor=#6E67A1;strokeColor=#6E67A1;entryX=0.5;entryY=0;entryDx=0;entryDy=0;exitX=0.5;exitY=1;exitDx=0;exitDy=0;strokeWidth=2;" edge="1" parent="1" source="bvwN4WITmdQyCTtZIi4v-18" target="bvwN4WITmdQyCTtZIi4v-88">
          <mxGeometry width="50" height="50" relative="1" as="geometry">
            <mxPoint x="439.9999999999998" y="380" as="sourcePoint" />
            <mxPoint x="369.9999999999998" y="340" as="targetPoint" />
          </mxGeometry>
        </mxCell>
        <mxCell id="bvwN4WITmdQyCTtZIi4v-119" value="" style="endArrow=none;html=1;rounded=0;fontFamily=Lucida Console;fontSize=12;fontColor=#6E67A1;strokeColor=#6E67A1;entryX=0.5;entryY=1;entryDx=0;entryDy=0;exitX=0.5;exitY=0;exitDx=0;exitDy=0;strokeWidth=2;" edge="1" parent="1" source="bvwN4WITmdQyCTtZIi4v-90" target="bvwN4WITmdQyCTtZIi4v-18">
          <mxGeometry width="50" height="50" relative="1" as="geometry">
            <mxPoint x="449.9999999999998" y="390" as="sourcePoint" />
            <mxPoint x="379.9999999999998" y="350" as="targetPoint" />
          </mxGeometry>
        </mxCell>
        <mxCell id="bvwN4WITmdQyCTtZIi4v-120" value="" style="endArrow=none;html=1;rounded=0;fontFamily=Lucida Console;fontSize=12;fontColor=#6E67A1;strokeColor=#6E67A1;entryX=0.5;entryY=0;entryDx=0;entryDy=0;exitX=0.5;exitY=1;exitDx=0;exitDy=0;strokeWidth=2;" edge="1" parent="1" source="bvwN4WITmdQyCTtZIi4v-18" target="bvwN4WITmdQyCTtZIi4v-92">
          <mxGeometry width="50" height="50" relative="1" as="geometry">
            <mxPoint x="459.9999999999998" y="400" as="sourcePoint" />
            <mxPoint x="389.9999999999998" y="360" as="targetPoint" />
          </mxGeometry>
        </mxCell>
        <mxCell id="bvwN4WITmdQyCTtZIi4v-121" value="" style="endArrow=none;html=1;rounded=0;fontFamily=Lucida Console;fontSize=12;fontColor=#6E67A1;strokeColor=#6E67A1;strokeWidth=2;" edge="1" parent="1">
          <mxGeometry width="50" height="50" relative="1" as="geometry">
            <mxPoint x="115" y="110" as="sourcePoint" />
            <mxPoint x="185" y="110" as="targetPoint" />
          </mxGeometry>
        </mxCell>
        <mxCell id="bvwN4WITmdQyCTtZIi4v-123" value="" style="endArrow=none;html=1;rounded=0;fontFamily=Lucida Console;fontSize=12;fontColor=#6E67A1;strokeColor=#6E67A1;strokeWidth=2;" edge="1" parent="1">
          <mxGeometry width="50" height="50" relative="1" as="geometry">
            <mxPoint x="564.9999999999998" y="109" as="sourcePoint" />
            <mxPoint x="634.9999999999998" y="109" as="targetPoint" />
          </mxGeometry>
        </mxCell>
        <mxCell id="bvwN4WITmdQyCTtZIi4v-124" value="" style="endArrow=none;html=1;rounded=0;fontFamily=Lucida Console;fontSize=12;fontColor=#6E67A1;strokeColor=#6E67A1;strokeWidth=2;" edge="1" parent="1">
          <mxGeometry width="50" height="50" relative="1" as="geometry">
            <mxPoint x="609.9999999999998" y="269" as="sourcePoint" />
            <mxPoint x="679.9999999999998" y="269" as="targetPoint" />
          </mxGeometry>
        </mxCell>
        <mxCell id="bvwN4WITmdQyCTtZIi4v-125" value="" style="endArrow=none;html=1;rounded=0;fontFamily=Lucida Console;fontSize=12;fontColor=#6E67A1;strokeColor=#6E67A1;strokeWidth=2;" edge="1" parent="1">
          <mxGeometry width="50" height="50" relative="1" as="geometry">
            <mxPoint x="610.9999999999998" y="499" as="sourcePoint" />
            <mxPoint x="680.9999999999998" y="499" as="targetPoint" />
          </mxGeometry>
        </mxCell>
        <mxCell id="bvwN4WITmdQyCTtZIi4v-126" value="" style="endArrow=none;html=1;rounded=0;fontFamily=Lucida Console;fontSize=12;fontColor=#6E67A1;strokeColor=#6E67A1;strokeWidth=2;" edge="1" parent="1">
          <mxGeometry width="50" height="50" relative="1" as="geometry">
            <mxPoint x="184.99999999999977" y="728" as="sourcePoint" />
            <mxPoint x="254.99999999999977" y="728" as="targetPoint" />
          </mxGeometry>
        </mxCell>
        <mxCell id="bvwN4WITmdQyCTtZIi4v-128" value="" style="endArrow=none;html=1;rounded=0;fontFamily=Lucida Console;fontSize=12;fontColor=#6E67A1;strokeColor=#6E67A1;strokeWidth=2;" edge="1" parent="1">
          <mxGeometry width="50" height="50" relative="1" as="geometry">
            <mxPoint x="535.9999999999998" y="728" as="sourcePoint" />
            <mxPoint x="605.9999999999998" y="728" as="targetPoint" />
          </mxGeometry>
        </mxCell>
        <mxCell id="bvwN4WITmdQyCTtZIi4v-130" value="" style="rounded=0;whiteSpace=wrap;html=1;fillColor=#dae8fc;strokeColor=#6c8ebf;strokeWidth=2;" vertex="1" parent="1">
          <mxGeometry x="-280" y="360" width="200" height="40" as="geometry" />
        </mxCell>
        <mxCell id="bvwN4WITmdQyCTtZIi4v-131" value="&lt;font style=&quot;font-size: 20px&quot; face=&quot;Lucida Console&quot; color=&quot;#6C8EBF&quot;&gt;TEMPLATE&lt;/font&gt;" style="text;html=1;strokeColor=none;fillColor=none;align=center;verticalAlign=middle;whiteSpace=wrap;rounded=0;" vertex="1" parent="1">
          <mxGeometry x="-210" y="365" width="60" height="30" as="geometry" />
        </mxCell>
        <mxCell id="bvwN4WITmdQyCTtZIi4v-132" value="" style="rhombus;whiteSpace=wrap;html=1;fontFamily=Lucida Console;fontSize=20;strokeWidth=2;fillColor=#fad7ac;strokeColor=#FF8000;fontStyle=1" vertex="1" parent="1">
          <mxGeometry x="-270" y="414" width="160" height="80" as="geometry" />
        </mxCell>
        <mxCell id="bvwN4WITmdQyCTtZIi4v-133" value="&lt;div&gt;&lt;font color=&quot;#FF8000&quot;&gt;template&lt;/font&gt;&lt;/div&gt;" style="text;html=1;strokeColor=none;fillColor=none;align=center;verticalAlign=middle;whiteSpace=wrap;rounded=0;fontFamily=Lucida Console;fontSize=20;fontColor=#6C8EBF;fontStyle=0" vertex="1" parent="1">
          <mxGeometry x="-220" y="439" width="60" height="30" as="geometry" />
        </mxCell>
        <mxCell id="bvwN4WITmdQyCTtZIi4v-134" value="" style="ellipse;whiteSpace=wrap;html=1;fontFamily=Lucida Console;fontSize=20;strokeColor=#6E67A1;strokeWidth=2;fillColor=#d0cee2;" vertex="1" parent="1">
          <mxGeometry x="-230" y="523" width="100" height="40" as="geometry" />
        </mxCell>
        <mxCell id="bvwN4WITmdQyCTtZIi4v-135" value="&lt;font style=&quot;font-size: 12px&quot; color=&quot;#6E67A1&quot;&gt;template&lt;/font&gt;" style="text;html=1;strokeColor=none;fillColor=none;align=center;verticalAlign=middle;whiteSpace=wrap;rounded=0;fontFamily=Lucida Console;fontSize=20;fontColor=#FF8000;" vertex="1" parent="1">
          <mxGeometry x="-210" y="535" width="60" height="12" as="geometry" />
        </mxCell>
        <mxCell id="bvwN4WITmdQyCTtZIi4v-138" value="" style="ellipse;whiteSpace=wrap;html=1;fontFamily=Lucida Console;fontSize=20;strokeColor=#6E67A1;strokeWidth=2;fillColor=#FFFFFF;" vertex="1" parent="1">
          <mxGeometry x="-230" y="583" width="100" height="40" as="geometry" />
        </mxCell>
        <mxCell id="bvwN4WITmdQyCTtZIi4v-139" value="" style="ellipse;whiteSpace=wrap;html=1;fontFamily=Lucida Console;fontSize=20;strokeColor=#6E67A1;strokeWidth=2;fillColor=#d0cee2;" vertex="1" parent="1">
          <mxGeometry x="-225" y="586" width="90" height="34" as="geometry" />
        </mxCell>
        <mxCell id="bvwN4WITmdQyCTtZIi4v-140" value="&lt;div&gt;&lt;font style=&quot;font-size: 12px&quot; color=&quot;#6E67A1&quot;&gt;template&lt;/font&gt;&lt;/div&gt;" style="text;html=1;strokeColor=none;fillColor=none;align=center;verticalAlign=middle;whiteSpace=wrap;rounded=0;fontFamily=Lucida Console;fontSize=20;fontColor=#FF8000;" vertex="1" parent="1">
          <mxGeometry x="-210" y="595" width="60" height="12" as="geometry" />
        </mxCell>
        <mxCell id="bvwN4WITmdQyCTtZIi4v-141" value="" style="rounded=0;whiteSpace=wrap;html=1;fillColor=#dae8fc;strokeColor=#6c8ebf;strokeWidth=2;" vertex="1" parent="1">
          <mxGeometry x="340" y="840" width="200" height="40" as="geometry" />
        </mxCell>
        <mxCell id="bvwN4WITmdQyCTtZIi4v-142" value="&lt;font style=&quot;font-size: 20px&quot; face=&quot;Lucida Console&quot; color=&quot;#6C8EBF&quot;&gt;RESERVATION&lt;/font&gt;" style="text;html=1;strokeColor=none;fillColor=none;align=center;verticalAlign=middle;whiteSpace=wrap;rounded=0;" vertex="1" parent="1">
          <mxGeometry x="410" y="845" width="60" height="30" as="geometry" />
        </mxCell>
        <mxCell id="bvwN4WITmdQyCTtZIi4v-145" value="" style="rounded=0;whiteSpace=wrap;html=1;fillColor=#dae8fc;strokeColor=#6c8ebf;strokeWidth=2;" vertex="1" parent="1">
          <mxGeometry x="120" y="400" width="200" height="40" as="geometry" />
        </mxCell>
        <mxCell id="bvwN4WITmdQyCTtZIi4v-146" value="&lt;font style=&quot;font-size: 20px&quot; face=&quot;Lucida Console&quot; color=&quot;#6C8EBF&quot;&gt;CLOCK&lt;/font&gt;" style="text;html=1;strokeColor=none;fillColor=none;align=center;verticalAlign=middle;whiteSpace=wrap;rounded=0;" vertex="1" parent="1">
          <mxGeometry x="190" y="405" width="60" height="30" as="geometry" />
        </mxCell>
        <mxCell id="bvwN4WITmdQyCTtZIi4v-147" value="" style="ellipse;whiteSpace=wrap;html=1;fontFamily=Lucida Console;fontSize=20;strokeColor=#6E67A1;strokeWidth=2;fillColor=#d0cee2;" vertex="1" parent="1">
          <mxGeometry x="120" y="472" width="100" height="40" as="geometry" />
        </mxCell>
        <mxCell id="bvwN4WITmdQyCTtZIi4v-148" value="&lt;b&gt;&lt;font style=&quot;font-size: 12px&quot; color=&quot;#6E67A1&quot;&gt;p_date&lt;/font&gt;&lt;/b&gt;" style="text;html=1;strokeColor=none;fillColor=none;align=center;verticalAlign=middle;whiteSpace=wrap;rounded=0;fontFamily=Lucida Console;fontSize=20;fontColor=#FF8000;" vertex="1" parent="1">
          <mxGeometry x="140" y="484" width="60" height="12" as="geometry" />
        </mxCell>
        <mxCell id="bvwN4WITmdQyCTtZIi4v-149" value="" style="endArrow=none;html=1;rounded=0;fontFamily=Lucida Console;fontSize=12;fontColor=#6E67A1;strokeColor=#6E67A1;entryX=0.5;entryY=1;entryDx=0;entryDy=0;exitX=0.5;exitY=0;exitDx=0;exitDy=0;strokeWidth=2;" edge="1" parent="1">
          <mxGeometry width="50" height="50" relative="1" as="geometry">
            <mxPoint x="-155" y="330" as="sourcePoint" />
            <mxPoint x="-225" y="290" as="targetPoint" />
          </mxGeometry>
        </mxCell>
        <mxCell id="bvwN4WITmdQyCTtZIi4v-150" value="" style="endArrow=none;html=1;rounded=0;fontFamily=Lucida Console;fontSize=12;fontColor=#6E67A1;strokeColor=#6E67A1;entryX=0.5;entryY=0;entryDx=0;entryDy=0;exitX=0.5;exitY=1;exitDx=0;exitDy=0;strokeWidth=2;" edge="1" parent="1" source="bvwN4WITmdQyCTtZIi4v-145" target="bvwN4WITmdQyCTtZIi4v-147">
          <mxGeometry width="50" height="50" relative="1" as="geometry">
            <mxPoint x="310" y="510" as="sourcePoint" />
            <mxPoint x="240" y="470" as="targetPoint" />
          </mxGeometry>
        </mxCell>
        <mxCell id="bvwN4WITmdQyCTtZIi4v-151" value="" style="endArrow=none;html=1;rounded=0;fontFamily=Lucida Console;fontSize=12;fontColor=#6E67A1;strokeColor=#6E67A1;strokeWidth=2;" edge="1" parent="1">
          <mxGeometry width="50" height="50" relative="1" as="geometry">
            <mxPoint x="-230" y="252" as="sourcePoint" />
            <mxPoint x="-160" y="252" as="targetPoint" />
          </mxGeometry>
        </mxCell>
        <mxCell id="bvwN4WITmdQyCTtZIi4v-152" value="" style="endArrow=none;html=1;rounded=0;fontFamily=Lucida Console;fontSize=12;fontColor=#6E67A1;strokeColor=#6E67A1;strokeWidth=2;" edge="1" parent="1">
          <mxGeometry width="50" height="50" relative="1" as="geometry">
            <mxPoint x="136" y="502" as="sourcePoint" />
            <mxPoint x="206" y="502" as="targetPoint" />
          </mxGeometry>
        </mxCell>
        <mxCell id="bvwN4WITmdQyCTtZIi4v-153" value="" style="rounded=0;whiteSpace=wrap;html=1;fillColor=#dae8fc;strokeColor=#6c8ebf;strokeWidth=2;" vertex="1" parent="1">
          <mxGeometry x="560" y="960" width="200" height="40" as="geometry" />
        </mxCell>
        <mxCell id="bvwN4WITmdQyCTtZIi4v-154" value="&lt;font style=&quot;font-size: 20px&quot; face=&quot;Lucida Console&quot; color=&quot;#6C8EBF&quot;&gt;PASSENGER&lt;/font&gt;" style="text;html=1;strokeColor=none;fillColor=none;align=center;verticalAlign=middle;whiteSpace=wrap;rounded=0;" vertex="1" parent="1">
          <mxGeometry x="630" y="965" width="60" height="30" as="geometry" />
        </mxCell>
        <mxCell id="bvwN4WITmdQyCTtZIi4v-155" value="" style="ellipse;whiteSpace=wrap;html=1;fontFamily=Lucida Console;fontSize=20;strokeColor=#6E67A1;strokeWidth=2;fillColor=#d0cee2;" vertex="1" parent="1">
          <mxGeometry x="475" y="1040" width="100" height="40" as="geometry" />
        </mxCell>
        <mxCell id="bvwN4WITmdQyCTtZIi4v-156" value="&lt;b&gt;&lt;font style=&quot;font-size: 12px&quot; color=&quot;#6E67A1&quot;&gt;customer_ID&lt;/font&gt;&lt;/b&gt;" style="text;html=1;strokeColor=none;fillColor=none;align=center;verticalAlign=middle;whiteSpace=wrap;rounded=0;fontFamily=Lucida Console;fontSize=20;fontColor=#FF8000;" vertex="1" parent="1">
          <mxGeometry x="495" y="1052" width="60" height="12" as="geometry" />
        </mxCell>
        <mxCell id="bvwN4WITmdQyCTtZIi4v-157" value="" style="ellipse;whiteSpace=wrap;html=1;fontFamily=Lucida Console;fontSize=20;strokeColor=#6E67A1;strokeWidth=2;fillColor=#d0cee2;" vertex="1" parent="1">
          <mxGeometry x="580" y="1040" width="100" height="40" as="geometry" />
        </mxCell>
        <mxCell id="bvwN4WITmdQyCTtZIi4v-158" value="&lt;font style=&quot;font-size: 12px&quot; color=&quot;#6E67A1&quot;&gt;first_name&lt;/font&gt;" style="text;html=1;strokeColor=none;fillColor=none;align=center;verticalAlign=middle;whiteSpace=wrap;rounded=0;fontFamily=Lucida Console;fontSize=20;fontColor=#FF8000;" vertex="1" parent="1">
          <mxGeometry x="600" y="1052" width="60" height="12" as="geometry" />
        </mxCell>
        <mxCell id="bvwN4WITmdQyCTtZIi4v-159" value="" style="ellipse;whiteSpace=wrap;html=1;fontFamily=Lucida Console;fontSize=20;strokeColor=#6E67A1;strokeWidth=2;fillColor=#d0cee2;" vertex="1" parent="1">
          <mxGeometry x="685" y="1040" width="100" height="40" as="geometry" />
        </mxCell>
        <mxCell id="bvwN4WITmdQyCTtZIi4v-160" value="&lt;font style=&quot;font-size: 12px&quot; color=&quot;#6E67A1&quot;&gt;last_name&lt;/font&gt;" style="text;html=1;strokeColor=none;fillColor=none;align=center;verticalAlign=middle;whiteSpace=wrap;rounded=0;fontFamily=Lucida Console;fontSize=20;fontColor=#FF8000;" vertex="1" parent="1">
          <mxGeometry x="705" y="1052" width="60" height="12" as="geometry" />
        </mxCell>
        <mxCell id="bvwN4WITmdQyCTtZIi4v-161" value="" style="ellipse;whiteSpace=wrap;html=1;fontFamily=Lucida Console;fontSize=20;strokeColor=#6E67A1;strokeWidth=2;fillColor=#d0cee2;" vertex="1" parent="1">
          <mxGeometry x="785" y="1007.5" width="100" height="40" as="geometry" />
        </mxCell>
        <mxCell id="bvwN4WITmdQyCTtZIi4v-162" value="&lt;font style=&quot;font-size: 12px&quot; color=&quot;#6E67A1&quot;&gt;address&lt;/font&gt;" style="text;html=1;strokeColor=none;fillColor=none;align=center;verticalAlign=middle;whiteSpace=wrap;rounded=0;fontFamily=Lucida Console;fontSize=20;fontColor=#FF8000;" vertex="1" parent="1">
          <mxGeometry x="805" y="1019.5" width="60" height="12" as="geometry" />
        </mxCell>
        <mxCell id="bvwN4WITmdQyCTtZIi4v-165" value="" style="ellipse;whiteSpace=wrap;html=1;fontFamily=Lucida Console;fontSize=20;strokeColor=#6E67A1;strokeWidth=2;fillColor=#d0cee2;" vertex="1" parent="1">
          <mxGeometry x="780" y="912.5" width="100" height="40" as="geometry" />
        </mxCell>
        <mxCell id="bvwN4WITmdQyCTtZIi4v-166" value="&lt;font style=&quot;font-size: 12px&quot; color=&quot;#6E67A1&quot;&gt;email&lt;/font&gt;" style="text;html=1;strokeColor=none;fillColor=none;align=center;verticalAlign=middle;whiteSpace=wrap;rounded=0;fontFamily=Lucida Console;fontSize=20;fontColor=#FF8000;" vertex="1" parent="1">
          <mxGeometry x="800" y="924.5" width="60" height="12" as="geometry" />
        </mxCell>
        <mxCell id="bvwN4WITmdQyCTtZIi4v-167" value="" style="ellipse;whiteSpace=wrap;html=1;fontFamily=Lucida Console;fontSize=20;strokeColor=#6E67A1;strokeWidth=2;fillColor=#FFFFFF;" vertex="1" parent="1">
          <mxGeometry x="785" y="959.5" width="100" height="40" as="geometry" />
        </mxCell>
        <mxCell id="bvwN4WITmdQyCTtZIi4v-168" value="" style="ellipse;whiteSpace=wrap;html=1;fontFamily=Lucida Console;fontSize=20;strokeColor=#6E67A1;strokeWidth=2;fillColor=#d0cee2;" vertex="1" parent="1">
          <mxGeometry x="790" y="962.5" width="90" height="34" as="geometry" />
        </mxCell>
        <mxCell id="bvwN4WITmdQyCTtZIi4v-169" value="&lt;div&gt;&lt;font style=&quot;font-size: 12px&quot; color=&quot;#6E67A1&quot;&gt;phone_no&lt;/font&gt;&lt;/div&gt;" style="text;html=1;strokeColor=none;fillColor=none;align=center;verticalAlign=middle;whiteSpace=wrap;rounded=0;fontFamily=Lucida Console;fontSize=20;fontColor=#FF8000;" vertex="1" parent="1">
          <mxGeometry x="805" y="971.5" width="60" height="12" as="geometry" />
        </mxCell>
        <mxCell id="bvwN4WITmdQyCTtZIi4v-170" value="" style="rhombus;whiteSpace=wrap;html=1;fontFamily=Lucida Console;fontSize=20;strokeWidth=2;fillColor=#fad7ac;strokeColor=#FF8000;fontStyle=1" vertex="1" parent="1">
          <mxGeometry x="360" y="940" width="160" height="80" as="geometry" />
        </mxCell>
        <mxCell id="bvwN4WITmdQyCTtZIi4v-171" value="&lt;div&gt;&lt;font color=&quot;#FF8000&quot;&gt;books&lt;/font&gt;&lt;/div&gt;" style="text;html=1;strokeColor=none;fillColor=none;align=center;verticalAlign=middle;whiteSpace=wrap;rounded=0;fontFamily=Lucida Console;fontSize=20;fontColor=#6C8EBF;fontStyle=0" vertex="1" parent="1">
          <mxGeometry x="410" y="965" width="60" height="30" as="geometry" />
        </mxCell>
        <mxCell id="bvwN4WITmdQyCTtZIi4v-172" value="" style="endArrow=none;html=1;rounded=0;fontFamily=Lucida Console;fontSize=12;fontColor=#6E67A1;strokeColor=#6E67A1;entryX=0.5;entryY=1;entryDx=0;entryDy=0;exitX=0.5;exitY=0;exitDx=0;exitDy=0;strokeWidth=2;" edge="1" parent="1" source="bvwN4WITmdQyCTtZIi4v-155" target="bvwN4WITmdQyCTtZIi4v-153">
          <mxGeometry width="50" height="50" relative="1" as="geometry">
            <mxPoint x="740" y="1160" as="sourcePoint" />
            <mxPoint x="670" y="1120" as="targetPoint" />
          </mxGeometry>
        </mxCell>
        <mxCell id="bvwN4WITmdQyCTtZIi4v-173" value="" style="endArrow=none;html=1;rounded=0;fontFamily=Lucida Console;fontSize=12;fontColor=#6E67A1;strokeColor=#6E67A1;entryX=0.5;entryY=1;entryDx=0;entryDy=0;exitX=0.5;exitY=0;exitDx=0;exitDy=0;strokeWidth=2;" edge="1" parent="1" source="bvwN4WITmdQyCTtZIi4v-157" target="bvwN4WITmdQyCTtZIi4v-153">
          <mxGeometry width="50" height="50" relative="1" as="geometry">
            <mxPoint x="535" y="1050" as="sourcePoint" />
            <mxPoint x="670" y="1010" as="targetPoint" />
          </mxGeometry>
        </mxCell>
        <mxCell id="bvwN4WITmdQyCTtZIi4v-174" value="" style="endArrow=none;html=1;rounded=0;fontFamily=Lucida Console;fontSize=12;fontColor=#6E67A1;strokeColor=#6E67A1;entryX=0.5;entryY=1;entryDx=0;entryDy=0;exitX=0.5;exitY=0;exitDx=0;exitDy=0;strokeWidth=2;" edge="1" parent="1" source="bvwN4WITmdQyCTtZIi4v-159" target="bvwN4WITmdQyCTtZIi4v-153">
          <mxGeometry width="50" height="50" relative="1" as="geometry">
            <mxPoint x="545" y="1060" as="sourcePoint" />
            <mxPoint x="680" y="1020" as="targetPoint" />
          </mxGeometry>
        </mxCell>
        <mxCell id="bvwN4WITmdQyCTtZIi4v-175" value="" style="endArrow=none;html=1;rounded=0;fontFamily=Lucida Console;fontSize=12;fontColor=#6E67A1;strokeColor=#6E67A1;entryX=1;entryY=0.5;entryDx=0;entryDy=0;exitX=0;exitY=0.5;exitDx=0;exitDy=0;strokeWidth=2;" edge="1" parent="1" source="bvwN4WITmdQyCTtZIi4v-161" target="bvwN4WITmdQyCTtZIi4v-153">
          <mxGeometry width="50" height="50" relative="1" as="geometry">
            <mxPoint x="555" y="1070" as="sourcePoint" />
            <mxPoint x="690" y="1030" as="targetPoint" />
          </mxGeometry>
        </mxCell>
        <mxCell id="bvwN4WITmdQyCTtZIi4v-176" value="" style="endArrow=none;html=1;rounded=0;fontFamily=Lucida Console;fontSize=12;fontColor=#6E67A1;strokeColor=#6E67A1;entryX=1;entryY=0.5;entryDx=0;entryDy=0;exitX=0;exitY=0.5;exitDx=0;exitDy=0;strokeWidth=2;" edge="1" parent="1" source="bvwN4WITmdQyCTtZIi4v-167" target="bvwN4WITmdQyCTtZIi4v-153">
          <mxGeometry width="50" height="50" relative="1" as="geometry">
            <mxPoint x="565" y="1080" as="sourcePoint" />
            <mxPoint x="700" y="1040" as="targetPoint" />
          </mxGeometry>
        </mxCell>
        <mxCell id="bvwN4WITmdQyCTtZIi4v-177" value="" style="endArrow=none;html=1;rounded=0;fontFamily=Lucida Console;fontSize=12;fontColor=#6E67A1;strokeColor=#6E67A1;entryX=0;entryY=0.5;entryDx=0;entryDy=0;exitX=1;exitY=0.5;exitDx=0;exitDy=0;strokeWidth=2;" edge="1" parent="1" source="bvwN4WITmdQyCTtZIi4v-153" target="bvwN4WITmdQyCTtZIi4v-165">
          <mxGeometry width="50" height="50" relative="1" as="geometry">
            <mxPoint x="575" y="1090" as="sourcePoint" />
            <mxPoint x="710" y="1050" as="targetPoint" />
          </mxGeometry>
        </mxCell>
        <mxCell id="bvwN4WITmdQyCTtZIi4v-178" value="" style="ellipse;whiteSpace=wrap;html=1;fontFamily=Lucida Console;fontSize=20;strokeColor=#6E67A1;strokeWidth=2;fillColor=#d0cee2;" vertex="1" parent="1">
          <mxGeometry x="190" y="857.5" width="100" height="40" as="geometry" />
        </mxCell>
        <mxCell id="bvwN4WITmdQyCTtZIi4v-179" value="&lt;b&gt;&lt;font style=&quot;font-size: 12px&quot; color=&quot;#6E67A1&quot;&gt;reserv_no&lt;/font&gt;&lt;/b&gt;" style="text;html=1;strokeColor=none;fillColor=none;align=center;verticalAlign=middle;whiteSpace=wrap;rounded=0;fontFamily=Lucida Console;fontSize=20;fontColor=#FF8000;" vertex="1" parent="1">
          <mxGeometry x="210" y="869.5" width="60" height="12" as="geometry" />
        </mxCell>
        <mxCell id="bvwN4WITmdQyCTtZIi4v-180" value="" style="ellipse;whiteSpace=wrap;html=1;fontFamily=Lucida Console;fontSize=20;strokeColor=#6E67A1;strokeWidth=2;fillColor=#d0cee2;" vertex="1" parent="1">
          <mxGeometry x="595" y="805" width="100" height="40" as="geometry" />
        </mxCell>
        <mxCell id="bvwN4WITmdQyCTtZIi4v-181" value="&lt;font style=&quot;font-size: 12px&quot; color=&quot;#6E67A1&quot;&gt;price&lt;/font&gt;" style="text;html=1;strokeColor=none;fillColor=none;align=center;verticalAlign=middle;whiteSpace=wrap;rounded=0;fontFamily=Lucida Console;fontSize=20;fontColor=#FF8000;" vertex="1" parent="1">
          <mxGeometry x="615" y="817" width="60" height="12" as="geometry" />
        </mxCell>
        <mxCell id="bvwN4WITmdQyCTtZIi4v-186" value="" style="ellipse;whiteSpace=wrap;html=1;fontFamily=Lucida Console;fontSize=20;strokeColor=#6E67A1;strokeWidth=2;fillColor=#d0cee2;" vertex="1" parent="1">
          <mxGeometry x="270" y="903" width="100" height="40" as="geometry" />
        </mxCell>
        <mxCell id="bvwN4WITmdQyCTtZIi4v-187" value="&lt;font style=&quot;font-size: 12px&quot; color=&quot;#6E67A1&quot;&gt;ticket_no&lt;/font&gt;" style="text;html=1;strokeColor=none;fillColor=none;align=center;verticalAlign=middle;whiteSpace=wrap;rounded=0;fontFamily=Lucida Console;fontSize=20;fontColor=#FF8000;" vertex="1" parent="1">
          <mxGeometry x="290" y="915" width="60" height="12" as="geometry" />
        </mxCell>
        <mxCell id="bvwN4WITmdQyCTtZIi4v-188" value="" style="ellipse;whiteSpace=wrap;html=1;fontFamily=Lucida Console;fontSize=20;strokeColor=#6E67A1;strokeWidth=2;fillColor=#FFFFFF;" vertex="1" parent="1">
          <mxGeometry x="595" y="854.5" width="100" height="40" as="geometry" />
        </mxCell>
        <mxCell id="bvwN4WITmdQyCTtZIi4v-189" value="" style="ellipse;whiteSpace=wrap;html=1;fontFamily=Lucida Console;fontSize=20;strokeColor=#6E67A1;strokeWidth=2;fillColor=#d0cee2;" vertex="1" parent="1">
          <mxGeometry x="600" y="857.5" width="90" height="34" as="geometry" />
        </mxCell>
        <mxCell id="bvwN4WITmdQyCTtZIi4v-190" value="&lt;div&gt;&lt;font style=&quot;font-size: 12px&quot; color=&quot;#6E67A1&quot;&gt;payments&lt;/font&gt;&lt;/div&gt;" style="text;html=1;strokeColor=none;fillColor=none;align=center;verticalAlign=middle;whiteSpace=wrap;rounded=0;fontFamily=Lucida Console;fontSize=20;fontColor=#FF8000;" vertex="1" parent="1">
          <mxGeometry x="615" y="866.5" width="60" height="12" as="geometry" />
        </mxCell>
        <mxCell id="bvwN4WITmdQyCTtZIi4v-194" value="" style="ellipse;whiteSpace=wrap;html=1;fontFamily=Lucida Console;fontSize=20;strokeColor=#6E67A1;strokeWidth=2;fillColor=#d0cee2;dashed=1;" vertex="1" parent="1">
          <mxGeometry x="595" y="903" width="100" height="40" as="geometry" />
        </mxCell>
        <mxCell id="bvwN4WITmdQyCTtZIi4v-195" value="&lt;font style=&quot;font-size: 12px&quot; color=&quot;#6E67A1&quot;&gt;balance&lt;/font&gt;" style="text;html=1;strokeColor=none;fillColor=none;align=center;verticalAlign=middle;whiteSpace=wrap;rounded=0;fontFamily=Lucida Console;fontSize=20;fontColor=#FF8000;" vertex="1" parent="1">
          <mxGeometry x="615" y="915" width="60" height="12" as="geometry" />
        </mxCell>
        <mxCell id="bvwN4WITmdQyCTtZIi4v-197" value="" style="endArrow=none;html=1;rounded=0;fontFamily=Lucida Console;fontSize=12;fontColor=#6E67A1;strokeColor=#6E67A1;entryX=0.5;entryY=1;entryDx=0;entryDy=0;exitX=0.5;exitY=0;exitDx=0;exitDy=0;strokeWidth=2;" edge="1" parent="1">
          <mxGeometry width="50" height="50" relative="1" as="geometry">
            <mxPoint x="-110" y="320" as="sourcePoint" />
            <mxPoint x="-180" y="280" as="targetPoint" />
          </mxGeometry>
        </mxCell>
        <mxCell id="bvwN4WITmdQyCTtZIi4v-203" value="" style="endArrow=none;html=1;rounded=0;fontFamily=Lucida Console;fontSize=12;fontColor=#6E67A1;strokeColor=#6E67A1;entryX=1;entryY=0.5;entryDx=0;entryDy=0;exitX=0;exitY=0.5;exitDx=0;exitDy=0;strokeWidth=2;" edge="1" parent="1" source="bvwN4WITmdQyCTtZIi4v-141" target="bvwN4WITmdQyCTtZIi4v-178">
          <mxGeometry width="50" height="50" relative="1" as="geometry">
            <mxPoint x="370" y="915" as="sourcePoint" />
            <mxPoint x="300" y="875" as="targetPoint" />
          </mxGeometry>
        </mxCell>
        <mxCell id="bvwN4WITmdQyCTtZIi4v-204" value="" style="endArrow=none;html=1;rounded=0;fontFamily=Lucida Console;fontSize=12;fontColor=#6E67A1;strokeColor=#6E67A1;entryX=0.5;entryY=0;entryDx=0;entryDy=0;exitX=0;exitY=0.5;exitDx=0;exitDy=0;strokeWidth=2;" edge="1" parent="1" source="bvwN4WITmdQyCTtZIi4v-141" target="bvwN4WITmdQyCTtZIi4v-186">
          <mxGeometry width="50" height="50" relative="1" as="geometry">
            <mxPoint x="330" y="881.5" as="sourcePoint" />
            <mxPoint x="280" y="899" as="targetPoint" />
          </mxGeometry>
        </mxCell>
        <mxCell id="bvwN4WITmdQyCTtZIi4v-205" value="" style="endArrow=none;html=1;rounded=0;fontFamily=Lucida Console;fontSize=12;fontColor=#6E67A1;strokeColor=#6E67A1;entryX=1;entryY=0.5;entryDx=0;entryDy=0;exitX=0;exitY=0.5;exitDx=0;exitDy=0;strokeWidth=2;" edge="1" parent="1" source="bvwN4WITmdQyCTtZIi4v-180" target="bvwN4WITmdQyCTtZIi4v-141">
          <mxGeometry width="50" height="50" relative="1" as="geometry">
            <mxPoint x="595" y="829" as="sourcePoint" />
            <mxPoint x="545" y="846.5" as="targetPoint" />
          </mxGeometry>
        </mxCell>
        <mxCell id="bvwN4WITmdQyCTtZIi4v-206" value="" style="endArrow=none;html=1;rounded=0;fontFamily=Lucida Console;fontSize=12;fontColor=#6E67A1;strokeColor=#6E67A1;entryX=1;entryY=0.5;entryDx=0;entryDy=0;exitX=0;exitY=0.5;exitDx=0;exitDy=0;strokeWidth=2;" edge="1" parent="1" target="bvwN4WITmdQyCTtZIi4v-141">
          <mxGeometry width="50" height="50" relative="1" as="geometry">
            <mxPoint x="595" y="874" as="sourcePoint" />
            <mxPoint x="545" y="891.5" as="targetPoint" />
          </mxGeometry>
        </mxCell>
        <mxCell id="bvwN4WITmdQyCTtZIi4v-207" value="" style="endArrow=none;html=1;rounded=0;fontFamily=Lucida Console;fontSize=12;fontColor=#6E67A1;strokeColor=#6E67A1;entryX=1;entryY=0.5;entryDx=0;entryDy=0;exitX=0;exitY=0.5;exitDx=0;exitDy=0;strokeWidth=2;" edge="1" parent="1" target="bvwN4WITmdQyCTtZIi4v-141">
          <mxGeometry width="50" height="50" relative="1" as="geometry">
            <mxPoint x="595" y="922.5" as="sourcePoint" />
            <mxPoint x="545" y="940" as="targetPoint" />
          </mxGeometry>
        </mxCell>
        <mxCell id="bvwN4WITmdQyCTtZIi4v-208" value="" style="endArrow=none;html=1;rounded=0;fontFamily=Lucida Console;fontSize=12;fontColor=#6E67A1;strokeColor=#6E67A1;strokeWidth=2;" edge="1" parent="1">
          <mxGeometry width="50" height="50" relative="1" as="geometry">
            <mxPoint x="205" y="887.5" as="sourcePoint" />
            <mxPoint x="275" y="887.5" as="targetPoint" />
          </mxGeometry>
        </mxCell>
        <mxCell id="bvwN4WITmdQyCTtZIi4v-209" value="" style="endArrow=none;html=1;rounded=0;fontFamily=Lucida Console;fontSize=12;fontColor=#6E67A1;strokeColor=#6E67A1;strokeWidth=2;" edge="1" parent="1">
          <mxGeometry width="50" height="50" relative="1" as="geometry">
            <mxPoint x="490" y="1069" as="sourcePoint" />
            <mxPoint x="560" y="1069" as="targetPoint" />
          </mxGeometry>
        </mxCell>
      </root>
    </mxGraphModel>
  </diagram>
</mxfile>
